<svg width="639" height="138" viewBox="0 0 639 138" fill="none" xmlns="http://www.w3.org/2000/svg">
<path d="M221.2 27.3C221.933 28.1667 222.3 29.0667 222.3 30C222.3 30.4 222.267 30.8333 222.2 31.3C222.2 31.7 222.167 32.0667 222.1 32.4C221.9 33.1333 221.467 33.8333 220.8 34.5C220.267 34.9 219.533 35.2 218.6 35.4C218.133 35.5333 217.667 35.6333 217.2 35.7C216.733 35.7667 216.233 35.8667 215.7 36C215.233 36.0667 214.767 36.1 214.3 36.1C213.833 36.1 213.333 36.1 212.8 36.1H207.7C206.5 36.1667 205.3 36.2 204.1 36.2C202.967 36.2 201.833 36.2 200.7 36.2C200.767 38.2667 200.8 40.5 200.8 42.9C200.8 45.2333 200.767 47.9667 200.7 51.1C200.7 54.2333 200.667 57.8667 200.6 62C200.6 66.1333 200.6 70.9333 200.6 76.4V84C200.6 84.6667 200.633 85.1667 200.7 85.5C200.7 85.7667 200.7 86.0333 200.7 86.3C200.7 86.5 200.667 86.7667 200.6 87.1C200.467 87.7 200.367 88.4 200.3 89.2C200.3 89.5333 200.267 89.8667 200.2 90.2C200.133 90.4667 200.033 90.7667 199.9 91.1C199.633 91.3667 199.5 91.5667 199.5 91.7L199.2 92.3C198.867 92.9667 198.233 93.6 197.3 94.2C195.833 94.9333 194.2 95.1 192.4 94.7C191.267 94.5667 190.4 94.2667 189.8 93.8C189.2 93.2 188.767 92.6 188.5 92C188.1 91.2667 187.867 90.5667 187.8 89.9C187.6 89.3 187.5 88.6667 187.5 88V36.6C187.1 36.6 186.267 36.6 185 36.6C183.733 36.6 182.367 36.6 180.9 36.6C179.5 36.5333 178.167 36.4667 176.9 36.4C175.633 36.3333 174.767 36.2667 174.3 36.2C173.9 36.1333 173.267 36.0333 172.4 35.9C171.6 35.7667 170.933 35.6333 170.4 35.5C169 35.1 167.9 34.4667 167.1 33.6C166.367 32.7333 166 31.7667 166 30.7C166 30.3 166 29.9 166 29.5C166 29.1 166.067 28.7333 166.2 28.4C166.4 27.6 166.933 26.9333 167.8 26.4C168.067 26.2 168.467 25.9667 169 25.7C169.6 25.3667 170.167 25.1333 170.7 25C171.5 24.7333 172.5 24.5333 173.7 24.4C174.233 24.3333 174.767 24.3 175.3 24.3C175.833 24.3 176.4 24.3 177 24.3C179.333 24.3 181.533 24.3 183.6 24.3C185.733 24.3 187.967 24.2667 190.3 24.2C194.167 24.1333 198 24.1333 201.8 24.2C205.667 24.2 209.5 24.2667 213.3 24.4C214.167 24.4667 215 24.5667 215.8 24.7C216.6 24.8333 217.4 25.0667 218.2 25.4C218.8 25.6 219.367 25.8667 219.9 26.2C220.433 26.4667 220.867 26.8333 221.2 27.3ZM230.141 52.9C232.141 51.9 234.241 51.2 236.441 50.8C238.641 50.3333 240.808 50.2333 242.941 50.5C245.141 50.7 247.241 51.2667 249.241 52.2C251.241 53.0667 253.108 54.3333 254.841 56C256.575 57.7333 257.908 59.6333 258.841 61.7C259.775 63.7667 260.441 66.0667 260.841 68.6C261.108 70.3333 261.541 71.9333 262.141 73.4C262.741 74.8667 263.375 76.3333 264.041 77.8C264.775 79.2667 265.441 80.7333 266.041 82.2C266.708 83.6667 267.241 85.2 267.641 86.8C267.975 88.3333 267.841 89.8333 267.241 91.3C266.708 92.7 265.575 93.5667 263.841 93.9C262.841 94.1 261.875 94.0333 260.941 93.7C260.075 93.3 259.275 92.7667 258.541 92.1C257.808 91.3667 257.141 90.6 256.541 89.8C256.008 88.9333 255.508 88.1333 255.041 87.4C253.508 89.4 251.841 90.9667 250.041 92.1C248.241 93.1667 246.075 93.8667 243.541 94.2C241.408 94.4667 239.375 94.5333 237.441 94.4C235.508 94.2667 233.441 93.9 231.241 93.3C228.375 92.5667 226.008 91.3 224.141 89.5C222.341 87.6333 220.941 85.5 219.941 83.1C219.008 80.6333 218.508 78 218.441 75.2C218.375 72.4 218.708 69.6333 219.441 66.9C220.375 63.3 221.775 60.3667 223.641 58.1C225.508 55.8333 227.675 54.1 230.141 52.9ZM232.641 64.6C231.708 65.5333 230.975 66.6333 230.441 67.9C229.908 69.1667 229.575 70.5 229.441 71.9C229.375 73.3 229.508 74.7 229.841 76.1C230.175 77.5 230.708 78.7333 231.441 79.8C232.108 80.7333 233.241 81.5333 234.841 82.2C236.441 82.8 238.108 83.1667 239.841 83.3C241.841 83.4333 243.575 82.9 245.041 81.7C246.575 80.5 247.708 79 248.441 77.2C249.241 75.3333 249.608 73.3667 249.541 71.3C249.475 69.1667 248.908 67.2333 247.841 65.5C247.041 64.2333 245.975 63.3 244.641 62.7C243.375 62.1 242.008 61.8 240.541 61.8C239.075 61.7333 237.608 61.9667 236.141 62.5C234.741 62.9667 233.575 63.6667 232.641 64.6ZM313.161 56.5C313.694 57.4333 313.961 58.4333 313.961 59.5C314.028 60.5667 313.794 61.5667 313.261 62.5C312.661 63.7 311.794 64.5333 310.661 65C309.594 65.4 308.394 65.4333 307.061 65.1C306.461 64.9667 305.928 64.7333 305.461 64.4C304.994 64.0667 304.494 63.7333 303.961 63.4C303.494 63 302.928 62.6333 302.261 62.3C301.661 61.9667 300.861 61.7333 299.861 61.6C298.861 61.4667 297.761 61.4667 296.561 61.6C295.428 61.7333 294.394 62 293.461 62.4C291.994 63.1333 290.828 64.2667 289.961 65.8C289.094 67.2667 288.528 68.8667 288.261 70.6C287.994 72.2667 288.028 73.9667 288.361 75.7C288.761 77.4333 289.494 78.9 290.561 80.1C291.361 81.0333 292.394 81.8 293.661 82.4C294.994 83 296.261 83.3667 297.461 83.5C298.594 83.6333 299.728 83.6333 300.861 83.5C301.994 83.3 303.094 83.0333 304.161 82.7C304.961 82.3667 305.861 81.9333 306.861 81.4C307.861 80.8 308.828 80.4333 309.761 80.3C310.961 80.3 311.894 80.6333 312.561 81.3C313.228 81.9 313.694 82.6667 313.961 83.6C314.228 84.4667 314.261 85.4 314.061 86.4C313.928 87.4 313.561 88.2667 312.961 89C312.161 90 311.028 90.9667 309.561 91.9C308.094 92.7667 306.694 93.4 305.361 93.8C303.761 94.3333 301.961 94.6333 299.961 94.7C298.028 94.7667 296.194 94.7 294.461 94.5C293.661 94.3667 292.828 94.2 291.961 94C291.094 93.8 290.261 93.5667 289.461 93.3C286.528 92.2333 284.061 90.7333 282.061 88.8C280.128 86.8 278.628 84.5667 277.561 82.1C276.561 79.6333 275.994 77 275.861 74.2C275.728 71.4 276.061 68.6333 276.861 65.9C277.594 63.3 278.494 61.1 279.561 59.3C280.694 57.5 281.994 56.0333 283.461 54.9C284.994 53.7 286.694 52.7667 288.561 52.1C290.428 51.3667 292.494 50.7333 294.761 50.2C297.094 49.7333 299.561 49.7333 302.161 50.2C304.761 50.6667 307.094 51.5333 309.161 52.8C310.761 53.6667 312.094 54.9 313.161 56.5ZM361.825 50.9C362.358 52.1667 362.392 53.5667 361.925 55.1C361.525 56.6333 360.758 57.6333 359.625 58.1C359.025 58.3667 358.225 58.6 357.225 58.8C356.225 58.9333 355.125 59.0667 353.925 59.2C352.792 59.3333 351.658 59.4333 350.525 59.5C349.392 59.5667 348.425 59.6 347.625 59.6C347.692 61.6 347.758 63.6667 347.825 65.8C347.892 67.8667 347.958 69.9 348.025 71.9C348.092 73.9 348.125 75.8333 348.125 77.7C348.125 79.5 348.092 81.1333 348.025 82.6C348.025 83.6 348.025 84.7667 348.025 86.1C348.025 87.3667 347.925 88.6 347.725 89.8C347.592 91 347.358 92.0667 347.025 93C346.692 93.8667 346.192 94.4333 345.525 94.7C343.458 95.5667 341.558 95.8 339.825 95.4C338.158 95.0667 336.958 94.3667 336.225 93.3C335.692 92.4333 335.292 91.4333 335.025 90.3C334.758 89.1 334.558 87.9 334.425 86.7C334.358 85.4333 334.325 84.2333 334.325 83.1C334.392 81.9 334.425 80.8667 334.425 80C334.492 77.2 334.525 74.0333 334.525 70.5C334.592 66.9 334.625 63.3 334.625 59.7H333.125C332.325 59.7 331.292 59.7 330.025 59.7C328.825 59.6333 327.592 59.5333 326.325 59.4C325.125 59.2 323.992 58.9667 322.925 58.7C321.858 58.3667 321.092 57.9 320.625 57.3C319.892 56.4333 319.425 55.5 319.225 54.5C319.092 53.5 319.158 52.5667 319.425 51.7C319.758 50.7667 320.258 49.9667 320.925 49.3C321.592 48.5667 322.358 48.1 323.225 47.9C324.425 47.5667 326.125 47.4 328.325 47.4C330.525 47.3333 332.592 47.3333 334.525 47.4C334.458 46.7333 334.425 46.1 334.425 45.5C334.425 44.8333 334.392 44.2 334.325 43.6C334.258 42.8 334.225 41.8 334.225 40.6C334.225 39.3333 334.292 38.1 334.425 36.9C334.625 35.6333 334.925 34.4667 335.325 33.4C335.725 32.2667 336.292 31.4 337.025 30.8C338.025 30 339.025 29.5667 340.025 29.5C341.092 29.3667 342.058 29.5 342.925 29.9C343.858 30.3 344.625 30.9 345.225 31.7C345.892 32.4333 346.358 33.2667 346.625 34.2C346.825 35 346.992 35.9667 347.125 37.1C347.258 38.1667 347.325 39.3 347.325 40.5C347.392 41.7 347.425 42.9 347.425 44.1C347.425 45.3 347.425 46.4 347.425 47.4H348.425C349.425 47.4 350.592 47.3667 351.925 47.3C353.258 47.2333 354.558 47.2667 355.825 47.4C357.158 47.5333 358.358 47.8667 359.425 48.4C360.492 48.8667 361.292 49.7 361.825 50.9ZM382.897 57.1C382.897 58.9667 382.897 61.0667 382.897 63.4C382.964 65.7333 382.997 68.1667 382.997 70.7C382.997 73.1667 382.997 75.6333 382.997 78.1C382.997 80.5 382.964 82.7333 382.897 84.8C382.83 85.8 382.73 86.9 382.597 88.1C382.464 89.2333 382.197 90.3 381.797 91.3C381.397 92.3 380.764 93.1333 379.897 93.8C379.097 94.4 377.997 94.6667 376.597 94.6C374.53 94.4667 373.03 93.5667 372.097 91.9C371.23 90.2333 370.73 87.9 370.597 84.9C370.597 83.3667 370.564 81.6 370.497 79.6C370.497 77.6 370.464 75.5667 370.397 73.5C370.397 71.4333 370.397 69.4333 370.397 67.5C370.397 65.5 370.397 63.7 370.397 62.1C370.397 61.1667 370.364 60.0333 370.297 58.7C370.297 57.3667 370.33 56 370.397 54.6C370.464 53.2 370.63 51.8667 370.897 50.6C371.164 49.2667 371.597 48.1667 372.197 47.3C372.664 46.7667 373.33 46.3667 374.197 46.1C375.064 45.7667 375.964 45.6 376.897 45.6C377.897 45.6 378.83 45.7667 379.697 46.1C380.63 46.4333 381.297 46.9 381.697 47.5C381.964 47.9 382.164 48.4667 382.297 49.2C382.43 49.9333 382.53 50.7667 382.597 51.7C382.73 52.5667 382.797 53.5 382.797 54.5C382.864 55.4333 382.897 56.3 382.897 57.1ZM379.097 36.9C377.03 37.4333 375.297 37.2333 373.897 36.3C372.564 35.3 371.73 33.8333 371.397 31.9C371.13 30.5 371.23 29.2667 371.697 28.2C372.164 27.1333 372.864 26.3333 373.797 25.8C374.73 25.2 375.797 24.9333 376.997 25C378.197 25.0667 379.397 25.5333 380.597 26.4C381.73 27.2 382.53 28.1333 382.997 29.2C383.53 30.2667 383.697 31.3 383.497 32.3C383.364 33.3 382.93 34.2333 382.197 35.1C381.464 35.9 380.43 36.5 379.097 36.9ZM405.96 87C405.893 87.3333 405.827 87.6667 405.76 88C405.76 88.2667 405.76 88.5667 405.76 88.9L405.16 91C405.027 91.2667 404.927 91.4333 404.86 91.5L404.56 92.1C404.227 92.8333 403.627 93.4333 402.76 93.9C401.16 94.7 399.46 94.9 397.66 94.5C396.527 94.3667 395.627 94.0333 394.96 93.5C394.293 93.0333 393.827 92.4667 393.56 91.8C393.293 91.1333 393.093 90.4667 392.96 89.8C392.76 89.1333 392.66 88.5333 392.66 88V32C392.66 31.5333 392.66 31.1333 392.66 30.8C392.727 30.4 392.793 30.0333 392.86 29.7C392.927 29.2333 392.993 28.8333 393.06 28.5C393.193 28.1667 393.327 27.8 393.46 27.4C393.66 26.7333 394.027 26.2 394.56 25.8C395.36 25.2 396.127 24.8667 396.86 24.8C397.327 24.6667 397.76 24.6 398.16 24.6C398.56 24.5333 399.027 24.5 399.56 24.5C400.493 24.5 401.56 24.7667 402.76 25.3C403.693 25.8333 404.36 26.5667 404.76 27.5C405.427 28.8333 405.76 30.0667 405.76 31.2C405.827 31.8667 405.86 32.8667 405.86 34.2C405.927 35.5333 405.96 36.5333 405.96 37.2V37.6C406.093 39.7333 406.16 41.8 406.16 43.8C406.16 45.7333 406.127 47.8667 406.06 50.2C406.06 52.4667 406.027 54.6667 405.96 56.8C405.96 58.8667 405.96 60.9333 405.96 63V84C405.96 84.2667 405.96 84.5333 405.96 84.8C406.027 85 406.06 85.2333 406.06 85.5C406.06 86.1667 406.027 86.6667 405.96 87ZM426.745 57.1C426.745 58.9667 426.745 61.0667 426.745 63.4C426.811 65.7333 426.845 68.1667 426.845 70.7C426.845 73.1667 426.845 75.6333 426.845 78.1C426.845 80.5 426.811 82.7333 426.745 84.8C426.678 85.8 426.578 86.9 426.445 88.1C426.311 89.2333 426.045 90.3 425.645 91.3C425.245 92.3 424.611 93.1333 423.745 93.8C422.945 94.4 421.845 94.6667 420.445 94.6C418.378 94.4667 416.878 93.5667 415.945 91.9C415.078 90.2333 414.578 87.9 414.445 84.9C414.445 83.3667 414.411 81.6 414.345 79.6C414.345 77.6 414.311 75.5667 414.245 73.5C414.245 71.4333 414.245 69.4333 414.245 67.5C414.245 65.5 414.245 63.7 414.245 62.1C414.245 61.1667 414.211 60.0333 414.145 58.7C414.145 57.3667 414.178 56 414.245 54.6C414.311 53.2 414.478 51.8667 414.745 50.6C415.011 49.2667 415.445 48.1667 416.045 47.3C416.511 46.7667 417.178 46.3667 418.045 46.1C418.911 45.7667 419.811 45.6 420.745 45.6C421.745 45.6 422.678 45.7667 423.545 46.1C424.478 46.4333 425.145 46.9 425.545 47.5C425.811 47.9 426.011 48.4667 426.145 49.2C426.278 49.9333 426.378 50.7667 426.445 51.7C426.578 52.5667 426.645 53.5 426.645 54.5C426.711 55.4333 426.745 56.3 426.745 57.1ZM422.945 36.9C420.878 37.4333 419.145 37.2333 417.745 36.3C416.411 35.3 415.578 33.8333 415.245 31.9C414.978 30.5 415.078 29.2667 415.545 28.2C416.011 27.1333 416.711 26.3333 417.645 25.8C418.578 25.2 419.645 24.9333 420.845 25C422.045 25.0667 423.245 25.5333 424.445 26.4C425.578 27.2 426.378 28.1333 426.845 29.2C427.378 30.2667 427.545 31.3 427.345 32.3C427.211 33.3 426.778 34.2333 426.045 35.1C425.311 35.9 424.278 36.5 422.945 36.9ZM436.705 59.3C436.705 57.7667 436.672 56.1333 436.605 54.4C436.605 52.6667 436.905 51.1 437.505 49.7C438.039 48.4333 438.905 47.5333 440.105 47C441.372 46.4 442.605 46.2667 443.805 46.6C445.005 46.8 445.939 47.1667 446.605 47.7C447.272 48.2333 447.739 48.8667 448.005 49.6C448.339 50.2667 448.539 51.0667 448.605 52C448.672 52.8667 448.739 53.7333 448.805 54.6C449.472 53.4 450.305 52.4333 451.305 51.7C452.305 50.9667 453.339 50.3667 454.405 49.9C455.472 49.4333 456.472 49.1 457.405 48.9C458.405 48.7 459.172 48.6 459.705 48.6C462.239 48.6 464.739 49.1667 467.205 50.3C469.739 51.3667 471.839 52.9 473.505 54.9C474.439 56.1 475.139 57.3667 475.605 58.7C476.139 59.9667 476.505 61.3 476.705 62.7C476.972 64.1 477.139 65.5333 477.205 67C477.272 68.4 477.339 69.8333 477.405 71.3C477.739 75.5667 477.739 79.8 477.405 84C477.339 84.8667 477.305 85.8667 477.305 87C477.305 88.1333 477.205 89.2667 477.005 90.4C476.872 91.4667 476.572 92.4333 476.105 93.3C475.705 94.1 475.005 94.6 474.005 94.8C472.605 95.1333 471.439 95.2 470.505 95C469.639 94.8667 468.939 94.5667 468.405 94.1C467.872 93.6333 467.472 93.0333 467.205 92.3C466.939 91.5667 466.705 90.7333 466.505 89.8C466.372 89.0667 466.239 88.2333 466.105 87.3C466.039 86.3 465.972 85.3 465.905 84.3C465.905 83.3 465.872 82.3333 465.805 81.4C465.805 80.4 465.805 79.5 465.805 78.7C465.805 77.4333 465.772 76.0333 465.705 74.5C465.639 72.9667 465.639 71.5333 465.705 70.2C465.705 67.0667 464.872 64.7 463.205 63.1C461.605 61.4333 459.405 60.7333 456.605 61C454.472 61.2667 452.605 62.1333 451.005 63.6C449.405 65 448.639 66.8333 448.705 69.1C448.705 69.9667 448.705 70.7667 448.705 71.5C448.705 72.2333 448.672 72.9667 448.605 73.7C448.605 74.4333 448.605 75.2333 448.605 76.1C448.605 76.9667 448.605 77.9333 448.605 79C448.605 81.2 448.605 83.5333 448.605 86C448.605 88.4 448.305 90.3667 447.705 91.9C447.172 93.5 446.272 94.6 445.005 95.2C443.739 95.8 442.239 95.6333 440.505 94.7C439.772 94.3 439.172 93.7667 438.705 93.1C438.305 92.3667 437.972 91.6 437.705 90.8C437.505 90 437.372 89.2 437.305 88.4C437.239 87.5333 437.172 86.7333 437.105 86C436.905 83.8 436.772 81.7667 436.705 79.9C436.705 77.9667 436.705 75.9 436.705 73.7V59.3ZM527.227 76.1C527.227 78.2333 527.16 80.5333 527.027 83C526.96 85.4667 526.86 87.7667 526.727 89.9C526.727 91.9 526.627 93.9 526.427 95.9C526.293 97.6333 526.027 99.5 525.627 101.5C525.227 103.567 524.66 105.467 523.927 107.2C522.993 109.467 521.727 111.4 520.127 113C518.527 114.667 516.46 115.867 513.927 116.6C511.793 117.133 509.793 117.467 507.927 117.6C506.06 117.8 504.06 117.767 501.927 117.5C500.527 117.3 499.027 116.9 497.427 116.3C495.827 115.767 494.327 115.067 492.927 114.2C491.527 113.333 490.293 112.3 489.227 111.1C488.16 109.967 487.427 108.667 487.027 107.2C486.56 105.4 486.527 103.833 486.927 102.5C487.393 101.167 488.093 100.2 489.027 99.6C489.96 99 491.06 98.9 492.327 99.3C493.593 99.7 494.793 100.733 495.927 102.4C496.727 103.6 497.893 104.567 499.427 105.3C500.96 106.033 502.593 106.467 504.327 106.6C506.06 106.733 507.727 106.5 509.327 105.9C510.993 105.367 512.293 104.4 513.227 103C513.893 102 514.36 100.567 514.627 98.7C514.96 96.8333 515.16 95 515.227 93.2C511.827 94.6 508.327 95.1333 504.727 94.8C501.193 94.4 497.96 93.3 495.027 91.5C492.16 89.6333 489.827 87.1667 488.027 84.1C486.293 80.9667 485.56 77.4333 485.827 73.5C486.027 70.1 486.727 66.9 487.927 63.9C489.193 60.9 491.26 58.4 494.127 56.4C496.46 54.8 499.093 53.7667 502.027 53.3C504.96 52.7667 507.793 52.5 510.527 52.5C512.127 52.5 513.693 52.5 515.227 52.5C516.827 52.5 518.293 52.7 519.627 53.1C520.96 53.5 522.16 54.1667 523.227 55.1C524.293 56.0333 525.093 57.4 525.627 59.2C526.493 62 526.96 64.7667 527.027 67.5C527.16 70.2333 527.227 73.1 527.227 76.1ZM507.927 84.4C508.593 84.4 509.227 84.3333 509.827 84.2C510.493 84.0667 511.127 83.9 511.727 83.7C512.86 83.3 513.693 82.7667 514.227 82.1C514.827 81.4333 515.227 80.7 515.427 79.9C515.627 79.0333 515.693 78.1 515.627 77.1C515.627 76.1 515.627 75.0667 515.627 74C515.627 73.1333 515.593 72.1667 515.527 71.1C515.527 70.0333 515.46 69.0333 515.327 68.1C515.193 67.1 514.993 66.2333 514.727 65.5C514.46 64.7667 514.06 64.3 513.527 64.1C512.593 63.8333 511.527 63.6667 510.327 63.6C509.127 63.4667 507.927 63.4667 506.727 63.6C505.527 63.6667 504.36 63.9 503.227 64.3C502.16 64.6333 501.26 65.1 500.527 65.7C499.527 66.5667 498.76 67.6333 498.227 68.9C497.693 70.1667 497.36 71.5 497.227 72.9C497.16 74.3 497.26 75.6667 497.527 77C497.86 78.3333 498.427 79.5333 499.227 80.6C500.16 81.9333 501.427 82.9 503.027 83.5C504.627 84.1 506.26 84.4 507.927 84.4ZM576.436 71.2C576.303 73.4 576.169 75.6333 576.036 77.9C575.903 80.1 575.536 82.2333 574.936 84.3C574.403 86.3667 573.536 88.2333 572.336 89.9C571.203 91.5667 569.569 92.9 567.436 93.9C565.569 94.8333 563.569 95.4667 561.436 95.8C559.303 96.2 557.169 96.3667 555.036 96.3C552.903 96.2333 550.836 95.9 548.836 95.3C546.836 94.7667 545.036 94 543.436 93C541.836 92 540.536 90.7 539.536 89.1C538.536 87.5 537.736 85.7667 537.136 83.9C536.603 82.0333 536.236 80.1 536.036 78.1C535.836 76.1 535.703 74.2333 535.636 72.5C535.369 67.9 535.369 63.3667 535.636 58.9C535.636 58.0333 535.636 57.0667 535.636 56C535.636 54.8667 535.703 53.7667 535.836 52.7C536.036 51.6333 536.336 50.6667 536.736 49.8C537.136 48.8667 537.803 48.1667 538.736 47.7C540.736 46.6333 542.569 46.5667 544.236 47.5C545.969 48.4333 547.003 50.3667 547.336 53.3C547.536 54.8333 547.603 56.5333 547.536 58.4C547.536 60.2667 547.603 61.9667 547.736 63.5C547.803 65.7667 547.869 68.2333 547.936 70.9C548.003 73.5 548.369 75.8333 549.036 77.9C549.769 79.9667 550.936 81.5333 552.536 82.6C554.203 83.6 556.669 83.6333 559.936 82.7C561.469 82.2333 562.469 81.0667 562.936 79.2C563.469 77.3333 563.736 74.5667 563.736 70.9C563.736 69.3 563.703 67.5333 563.636 65.6C563.569 63.6667 563.536 61.7667 563.536 59.9C563.536 57.9667 563.569 56.2 563.636 54.6C563.769 52.9333 563.969 51.6667 564.236 50.8C564.569 49.6 565.269 48.7 566.336 48.1C567.403 47.5 568.536 47.2 569.736 47.2C570.936 47.1333 572.069 47.3667 573.136 47.9C574.203 48.4333 574.936 49.3 575.336 50.5C575.736 51.5667 576.003 52.9333 576.136 54.6C576.336 56.2 576.469 57.9667 576.536 59.9C576.603 61.7667 576.603 63.7 576.536 65.7C576.536 67.6333 576.503 69.4667 576.436 71.2ZM596.352 52.9C598.352 51.9 600.452 51.2 602.652 50.8C604.852 50.3333 607.019 50.2333 609.152 50.5C611.352 50.7 613.452 51.2667 615.452 52.2C617.452 53.0667 619.319 54.3333 621.052 56C622.786 57.7333 624.119 59.6333 625.052 61.7C625.986 63.7667 626.652 66.0667 627.052 68.6C627.319 70.3333 627.752 71.9333 628.352 73.4C628.952 74.8667 629.586 76.3333 630.252 77.8C630.986 79.2667 631.652 80.7333 632.252 82.2C632.919 83.6667 633.452 85.2 633.852 86.8C634.186 88.3333 634.052 89.8333 633.452 91.3C632.919 92.7 631.786 93.5667 630.052 93.9C629.052 94.1 628.086 94.0333 627.152 93.7C626.286 93.3 625.486 92.7667 624.752 92.1C624.019 91.3667 623.352 90.6 622.752 89.8C622.219 88.9333 621.719 88.1333 621.252 87.4C619.719 89.4 618.052 90.9667 616.252 92.1C614.452 93.1667 612.286 93.8667 609.752 94.2C607.619 94.4667 605.586 94.5333 603.652 94.4C601.719 94.2667 599.652 93.9 597.452 93.3C594.586 92.5667 592.219 91.3 590.352 89.5C588.552 87.6333 587.152 85.5 586.152 83.1C585.219 80.6333 584.719 78 584.652 75.2C584.586 72.4 584.919 69.6333 585.652 66.9C586.586 63.3 587.986 60.3667 589.852 58.1C591.719 55.8333 593.886 54.1 596.352 52.9ZM598.852 64.6C597.919 65.5333 597.186 66.6333 596.652 67.9C596.119 69.1667 595.786 70.5 595.652 71.9C595.586 73.3 595.719 74.7 596.052 76.1C596.386 77.5 596.919 78.7333 597.652 79.8C598.319 80.7333 599.452 81.5333 601.052 82.2C602.652 82.8 604.319 83.1667 606.052 83.3C608.052 83.4333 609.786 82.9 611.252 81.7C612.786 80.5 613.919 79 614.652 77.2C615.452 75.3333 615.819 73.3667 615.752 71.3C615.686 69.1667 615.119 67.2333 614.052 65.5C613.252 64.2333 612.186 63.3 610.852 62.7C609.586 62.1 608.219 61.8 606.752 61.8C605.286 61.7333 603.819 61.9667 602.352 62.5C600.952 62.9667 599.786 63.6667 598.852 64.6Z" fill="black"/>
<g filter="url(#filter0_d_477_2)">
<circle cx="69" cy="65" r="65" fill="url(#paint0_linear_477_2)"/>
</g>
<circle cx="86" cy="34" r="10" fill="white"/>
<circle cx="86" cy="68" r="10" fill="white"/>
<circle cx="52" cy="68" r="10" fill="white"/>
<ellipse cx="52" cy="100.5" rx="10" ry="10.5" fill="white"/>
<defs>
<filter id="filter0_d_477_2" x="0" y="0" width="138" height="138" filterUnits="userSpaceOnUse" color-interpolation-filters="sRGB">
<feFlood flood-opacity="0" result="BackgroundImageFix"/>
<feColorMatrix in="SourceAlpha" type="matrix" values="0 0 0 0 0 0 0 0 0 0 0 0 0 0 0 0 0 0 127 0" result="hardAlpha"/>
<feOffset dy="4"/>
<feGaussianBlur stdDeviation="2"/>
<feComposite in2="hardAlpha" operator="out"/>
<feColorMatrix type="matrix" values="0 0 0 0 0 0 0 0 0 0 0 0 0 0 0 0 0 0 0.25 0"/>
<feBlend mode="normal" in2="BackgroundImageFix" result="effect1_dropShadow_477_2"/>
<feBlend mode="normal" in="SourceGraphic" in2="effect1_dropShadow_477_2" result="shape"/>
</filter>
<linearGradient id="paint0_linear_477_2" x1="69" y1="0" x2="69" y2="130" gradientUnits="userSpaceOnUse">
<stop stop-color="#0F7F54"/>
<stop offset="1" stop-color="#B4DA4F"/>
</linearGradient>
</defs>
</svg>
